<?xml version="1.0" encoding="UTF-8"?>
<svg version="1.1" xmlns="http://www.w3.org/2000/svg" width="1024" height="1024">
<path d="M0 0 C2.54872315 -0.00418141 5.09744444 -0.00966332 7.64616233 -0.01631981 C13.15059483 -0.02770123 18.65490894 -0.02994052 24.15934753 -0.02376938 C32.34537023 -0.01461676 40.53131504 -0.02275935 48.71733181 -0.03406062 C63.34544694 -0.05365985 77.9735265 -0.05608788 92.60165163 -0.05086542 C105.40658699 -0.04629651 118.21150834 -0.046922 131.01644325 -0.05270576 C132.73848483 -0.05346265 134.46052641 -0.05421863 136.18256799 -0.05497371 C138.777997 -0.05611899 141.37342601 -0.05726887 143.96885502 -0.05843295 C168.07829368 -0.06912776 192.1877277 -0.07387376 216.29716778 -0.06596279 C217.65851622 -0.06551703 217.65851622 -0.06551703 219.04736664 -0.06506227 C226.41596543 -0.06261369 233.78456417 -0.06000192 241.1531629 -0.05737813 C269.88279589 -0.04727946 298.6123704 -0.05562805 327.34199524 -0.07887268 C359.67245571 -0.1049888 392.00288099 -0.11778153 424.33335239 -0.11068493 C427.78568923 -0.10996895 431.23802608 -0.10929455 434.69036293 -0.10864449 C435.54032042 -0.10847468 436.39027791 -0.10830487 437.26599169 -0.10812991 C450.05392493 -0.10583424 462.84182533 -0.11376886 475.62975121 -0.12693596 C490.18639845 -0.14189815 504.74296912 -0.14262258 519.29961481 -0.12486505 C527.42827385 -0.11535512 535.55675387 -0.11662717 543.68540067 -0.13409974 C549.78173947 -0.1459401 555.87788157 -0.13648831 561.97420368 -0.11927737 C564.42018582 -0.11554227 566.86619 -0.11836622 569.31215235 -0.12888902 C628.62074255 -0.36564226 684.63645758 22.0352306 727.1879425 63.38768005 C730.09213078 66.28814142 732.9640943 69.21800416 735.8129425 72.1728363 C737.93942906 74.15592492 739.6226404 75.14216589 742.1879425 76.38768005 C742.87547551 78.04584789 743.54355534 79.71227342 744.1879425 81.38768005 C745.1779425 81.71768005 746.1679425 82.04768005 747.1879425 82.38768005 C747.52127584 83.72101339 747.85460917 85.05434672 748.1879425 86.38768005 C749.1779425 86.71768005 750.1679425 87.04768005 751.1879425 87.38768005 C751.5179425 88.37768005 751.8479425 89.36768005 752.1879425 90.38768005 C752.8479425 90.71768005 753.5079425 91.04768005 754.1879425 91.38768005 C754.5179425 92.37768005 754.8479425 93.36768005 755.1879425 94.38768005 C755.75255188 94.92521912 756.31716125 95.46275818 756.89888 96.0165863 C760.17495909 99.41006754 762.40667428 103.28511701 764.8129425 107.32518005 C765.59919006 108.64449524 765.59919006 108.64449524 766.40132141 109.99046326 C773.66638113 122.39291099 779.92072733 135.30235887 784.8129425 148.82518005 C785.0609259 149.50475769 785.3089093 150.18433533 785.56440735 150.88450623 C786.91670032 154.83724763 787.43280369 158.21859624 787.1879425 162.38768005 C787.8479425 162.38768005 788.5079425 162.38768005 789.1879425 162.38768005 C789.1260675 163.99643005 789.1260675 163.99643005 789.0629425 165.63768005 C789.176525 169.0451549 789.40067614 170.59507636 791.1879425 173.38768005 C791.5179425 173.38768005 791.8479425 173.38768005 792.1879425 173.38768005 C795.91500863 187.04996971 795.60853126 200.62797651 795.56889343 214.69114685 C795.5723533 217.3662838 795.57699776 220.04139519 795.58307517 222.71652508 C795.59386344 228.51542856 795.59361052 234.31424812 795.58593369 240.11315536 C795.57454888 248.73657054 795.58040678 257.3599154 795.58955861 265.98333016 C795.60532958 281.38802134 795.60399713 296.79267513 795.59532187 312.19736984 C795.5877674 325.67848433 795.58580873 339.15958513 795.5893898 352.64070129 C795.58961896 353.53584604 795.58984811 354.43099079 795.59008421 355.35326114 C795.59101827 358.98718467 795.59197347 362.6211082 795.5929635 366.25503172 C795.6021351 400.3257941 795.59382868 434.39653269 795.57767281 468.4672914 C795.5634366 498.71973838 795.56471051 528.97214747 795.57905579 559.22459412 C795.5951288 593.23408623 795.60148459 627.24355733 795.592219 661.25305271 C795.59125688 664.88025474 795.59031836 668.50745678 795.5893898 672.13465881 C795.58903395 673.4742678 795.58903395 673.4742678 795.58867092 674.8409396 C795.58526226 688.31171555 795.5892423 701.78247628 795.59682846 715.25325012 C795.60541365 730.57414361 795.60324593 745.89499394 795.58698623 761.21588206 C795.5781919 769.78448323 795.57758129 778.35299088 795.58892475 786.92158958 C795.59567237 792.65179962 795.59142841 798.381935 795.57841045 804.11213401 C795.57130388 807.3724587 795.57043899 810.6325626 795.57962839 813.89288747 C795.61300746 826.72200445 795.58380336 838.93948808 792.1879425 851.38768005 C791.5279425 851.38768005 790.8679425 851.38768005 790.1879425 851.38768005 C790.0435675 852.46018005 789.8991925 853.53268005 789.7504425 854.63768005 C789.18189975 858.42796506 788.3959769 861.76357687 787.1879425 865.38768005 C786.89533639 866.75535931 786.61383912 868.12543786 786.34028625 869.49705505 C785.25960105 874.41521472 783.63664918 878.97589339 781.7504425 883.63768005 C781.40481262 884.49321472 781.05918274 885.34874939 780.70307922 886.23020935 C764.02497015 926.46916623 764.02497015 926.46916623 754.1879425 931.38768005 C753.8579425 932.37768005 753.5279425 933.36768005 753.1879425 934.38768005 C752.5279425 934.71768005 751.8679425 935.04768005 751.1879425 935.38768005 C750.8579425 936.37768005 750.5279425 937.36768005 750.1879425 938.38768005 C749.1979425 938.71768005 748.2079425 939.04768005 747.1879425 939.38768005 C747.0229425 940.04768005 746.8579425 940.70768005 746.6879425 941.38768005 C746.5229425 942.04768005 746.3579425 942.70768005 746.1879425 943.38768005 C745.1979425 943.71768005 744.2079425 944.04768005 743.1879425 944.38768005 C743.0848175 944.98580505 742.9816925 945.58393005 742.8754425 946.20018005 C741.9775174 949.05721448 740.42505748 949.52241689 737.99580383 951.07347107 C734.3241292 953.74256284 731.32533758 957.18821983 728.1879425 960.45018005 C721.47025467 967.29274008 714.60527779 973.48885118 706.87202454 979.15232849 C705.18085708 980.39287754 703.51048366 981.65815193 701.84028625 982.92674255 C679.2926842 999.80328106 652.50146247 1011.64754039 625.3129425 1018.63768005 C624.41825256 1018.87180603 623.52356262 1019.10593201 622.60176086 1019.34715271 C603.96169453 1023.91266804 585.48854167 1024.8269329 566.37588501 1024.77536011 C563.82716186 1024.77954152 561.27844057 1024.78502343 558.72972268 1024.79167992 C553.22529018 1024.80306133 547.72097607 1024.80530062 542.21653748 1024.79912949 C534.03051478 1024.78997687 525.84456997 1024.79811946 517.6585532 1024.80942073 C503.03043807 1024.82901996 488.40235851 1024.83144799 473.77423338 1024.82622553 C460.96929802 1024.82165662 448.16437667 1024.82228211 435.35944176 1024.82806587 C433.63740018 1024.82882276 431.9153586 1024.82957874 430.19331702 1024.83033382 C427.59788801 1024.8314791 425.002459 1024.83262898 422.40702999 1024.83379306 C398.29759133 1024.84448786 374.18815731 1024.84923387 350.07871723 1024.8413229 C349.17115161 1024.84102573 348.26358598 1024.84072855 347.32851837 1024.84042237 C339.95991958 1024.8379738 332.59132084 1024.83536203 325.22272211 1024.83273824 C296.49308912 1024.82263957 267.76351461 1024.83098816 239.03388977 1024.85423279 C206.7034293 1024.88034891 174.37300402 1024.89314163 142.04253262 1024.88604504 C138.59019578 1024.88532906 135.13785893 1024.88465466 131.68552208 1024.88400459 C130.83556459 1024.88383478 129.9856071 1024.88366497 129.10989332 1024.88349002 C116.32196008 1024.88119435 103.53405968 1024.88912896 90.7461338 1024.90229607 C76.18948656 1024.91725826 61.63291589 1024.91798269 47.0762702 1024.90022516 C38.94761116 1024.89071522 30.81913114 1024.89198728 22.69048434 1024.90945984 C16.59414554 1024.92130021 10.49800344 1024.91184841 4.40168133 1024.89463747 C1.95569919 1024.89090238 -0.49030499 1024.89372633 -2.93626734 1024.90424912 C-62.24485754 1025.14100237 -118.26057257 1002.74012951 -160.8120575 961.38768005 C-163.71624577 958.48721868 -166.58820929 955.55735594 -169.4370575 952.6025238 C-171.56354405 950.61943519 -173.24675539 949.63319422 -175.8120575 948.38768005 C-176.4995905 946.72951221 -177.16767033 945.06308669 -177.8120575 943.38768005 C-178.8020575 943.05768005 -179.7920575 942.72768005 -180.8120575 942.38768005 C-181.14539083 941.05434672 -181.47872416 939.72101339 -181.8120575 938.38768005 C-182.8020575 938.05768005 -183.7920575 937.72768005 -184.8120575 937.38768005 C-185.3070575 935.90268005 -185.3070575 935.90268005 -185.8120575 934.38768005 C-186.4720575 934.05768005 -187.1320575 933.72768005 -187.8120575 933.38768005 C-188.3070575 931.90268005 -188.3070575 931.90268005 -188.8120575 930.38768005 C-189.37666687 929.85014099 -189.94127625 929.31260193 -190.522995 928.7587738 C-193.79907408 925.36529257 -196.03078927 921.4902431 -198.4370575 917.45018005 C-198.96122253 916.5706366 -199.48538757 915.69109314 -200.0254364 914.78489685 C-207.29049612 902.38244911 -213.54484232 889.47300124 -218.4370575 875.95018005 C-218.68504089 875.27060242 -218.93302429 874.59102478 -219.18852234 873.89085388 C-220.54081531 869.93811248 -221.05691868 866.55676386 -220.8120575 862.38768005 C-221.4720575 862.38768005 -222.1320575 862.38768005 -222.8120575 862.38768005 C-222.7708075 861.31518005 -222.7295575 860.24268005 -222.6870575 859.13768005 C-222.80063999 855.7302052 -223.02479113 854.18028375 -224.8120575 851.38768005 C-225.1420575 851.38768005 -225.4720575 851.38768005 -225.8120575 851.38768005 C-229.53912362 837.72539039 -229.23264625 824.1473836 -229.19300842 810.08421326 C-229.19646829 807.40907631 -229.20111275 804.73396491 -229.20719016 802.05883503 C-229.21797843 796.25993155 -229.21772551 790.46111199 -229.21004868 784.66220474 C-229.19866387 776.03878957 -229.20452177 767.41544471 -229.2136736 758.79202995 C-229.22944457 743.38733876 -229.22811212 727.98268498 -229.21943686 712.57799026 C-229.21188239 699.09687578 -229.20992372 685.61577498 -229.21350479 672.13465881 C-229.21373395 671.23951407 -229.2139631 670.34436932 -229.2141992 669.42209897 C-229.21513326 665.78817544 -229.21608846 662.15425191 -229.21707849 658.52032839 C-229.22625009 624.44956601 -229.21794367 590.37882741 -229.2017878 556.30806871 C-229.18755159 526.05562173 -229.1888255 495.80321264 -229.20317078 465.55076599 C-229.21924379 431.54127388 -229.22559958 397.53180278 -229.21633399 363.5223074 C-229.21537187 359.89510537 -229.21443335 356.26790333 -229.21350479 352.64070129 C-229.21326756 351.74762863 -229.21303033 350.85455597 -229.21278591 349.9344205 C-229.20937726 336.46364456 -229.21335729 322.99288382 -229.22094345 309.52210999 C-229.22952864 294.2012165 -229.22736092 278.88036617 -229.21110122 263.55947804 C-229.20230689 254.99087688 -229.20169628 246.42236923 -229.21303974 237.85377053 C-229.21978736 232.12356048 -229.2155434 226.39342511 -229.20252544 220.66322609 C-229.19541887 217.4029014 -229.19455398 214.14279751 -229.20374338 210.88247263 C-229.23712245 198.05335565 -229.20791835 185.83587203 -225.8120575 173.38768005 C-225.1520575 173.38768005 -224.4920575 173.38768005 -223.8120575 173.38768005 C-223.6676825 172.31518005 -223.5233075 171.24268005 -223.3745575 170.13768005 C-222.80601474 166.34739504 -222.02009189 163.01178324 -220.8120575 159.38768005 C-220.51945138 158.0200008 -220.23795411 156.64992224 -219.96440125 155.27830505 C-218.88371604 150.36014538 -217.26076417 145.79946672 -215.3745575 141.13768005 C-215.02892761 140.28214539 -214.68329773 139.42661072 -214.32719421 138.54515076 C-197.64908514 98.30619388 -197.64908514 98.30619388 -187.8120575 93.38768005 C-187.3170575 91.90268005 -187.3170575 91.90268005 -186.8120575 90.38768005 C-186.1520575 90.05768005 -185.4920575 89.72768005 -184.8120575 89.38768005 C-184.3170575 87.90268005 -184.3170575 87.90268005 -183.8120575 86.38768005 C-182.8220575 86.05768005 -181.8320575 85.72768005 -180.8120575 85.38768005 C-180.6470575 84.72768005 -180.4820575 84.06768005 -180.3120575 83.38768005 C-180.1470575 82.72768005 -179.9820575 82.06768005 -179.8120575 81.38768005 C-178.8220575 81.05768005 -177.8320575 80.72768005 -176.8120575 80.38768005 C-176.65737 79.49049255 -176.65737 79.49049255 -176.4995575 78.57518005 C-175.60163239 75.71814562 -174.04917247 75.25294322 -171.61991882 73.70188904 C-167.94824419 71.03279727 -164.94945257 67.58714027 -161.8120575 64.32518005 C-155.09436966 57.48262003 -148.22939278 51.28650893 -140.49613953 45.62303162 C-138.80497207 44.38248257 -137.13459865 43.11720818 -135.46440125 41.84861755 C-112.91679919 24.97207905 -86.12557746 13.12781972 -58.9370575 6.13768005 C-57.59502258 5.78649109 -57.59502258 5.78649109 -56.22587585 5.4282074 C-37.58580952 0.86269207 -19.11265666 -0.05157279 0 0 Z M-211.8120575 135.38768005 C-210.8120575 137.38768005 -210.8120575 137.38768005 -210.8120575 137.38768005 Z M777.1879425 135.38768005 C778.1879425 137.38768005 778.1879425 137.38768005 778.1879425 137.38768005 Z M-214.8120575 142.38768005 C-213.8120575 144.38768005 -213.8120575 144.38768005 -213.8120575 144.38768005 Z M780.1879425 142.38768005 C781.1879425 144.38768005 781.1879425 144.38768005 781.1879425 144.38768005 Z M-216.8120575 147.38768005 C-215.8120575 149.38768005 -215.8120575 149.38768005 -215.8120575 149.38768005 Z M782.1879425 147.38768005 C783.1879425 149.38768005 783.1879425 149.38768005 783.1879425 149.38768005 Z M-217.8120575 150.38768005 C-216.8120575 152.38768005 -216.8120575 152.38768005 -216.8120575 152.38768005 Z M783.1879425 150.38768005 C784.1879425 152.38768005 784.1879425 152.38768005 784.1879425 152.38768005 Z M-218.8120575 153.38768005 C-217.8120575 155.38768005 -217.8120575 155.38768005 -217.8120575 155.38768005 Z M784.1879425 153.38768005 C785.1879425 155.38768005 785.1879425 155.38768005 785.1879425 155.38768005 Z M-219.8120575 156.38768005 C-218.8120575 158.38768005 -218.8120575 158.38768005 -218.8120575 158.38768005 Z M785.1879425 156.38768005 C786.1879425 158.38768005 786.1879425 158.38768005 786.1879425 158.38768005 Z M-225.8120575 178.38768005 C-224.8120575 182.38768005 -224.8120575 182.38768005 -224.8120575 182.38768005 Z M791.1879425 178.38768005 C792.1879425 182.38768005 792.1879425 182.38768005 792.1879425 182.38768005 Z M-226.8120575 183.38768005 C-225.8120575 187.38768005 -225.8120575 187.38768005 -225.8120575 187.38768005 Z M792.1879425 183.38768005 C793.1879425 187.38768005 793.1879425 187.38768005 793.1879425 187.38768005 Z M-227.8120575 188.38768005 C-227.8120575 190.36768005 -227.8120575 192.34768005 -227.8120575 194.38768005 C-227.4820575 194.38768005 -227.1520575 194.38768005 -226.8120575 194.38768005 C-226.8120575 192.40768005 -226.8120575 190.42768005 -226.8120575 188.38768005 C-227.1420575 188.38768005 -227.4720575 188.38768005 -227.8120575 188.38768005 Z M793.1879425 188.38768005 C793.1879425 190.36768005 793.1879425 192.34768005 793.1879425 194.38768005 C793.5179425 194.38768005 793.8479425 194.38768005 794.1879425 194.38768005 C794.1879425 192.40768005 794.1879425 190.42768005 794.1879425 188.38768005 C793.8579425 188.38768005 793.5279425 188.38768005 793.1879425 188.38768005 Z M-227.8120575 830.38768005 C-227.8120575 832.36768005 -227.8120575 834.34768005 -227.8120575 836.38768005 C-227.4820575 836.38768005 -227.1520575 836.38768005 -226.8120575 836.38768005 C-226.8120575 834.40768005 -226.8120575 832.42768005 -226.8120575 830.38768005 C-227.1420575 830.38768005 -227.4720575 830.38768005 -227.8120575 830.38768005 Z M793.1879425 830.38768005 C793.1879425 832.36768005 793.1879425 834.34768005 793.1879425 836.38768005 C793.5179425 836.38768005 793.8479425 836.38768005 794.1879425 836.38768005 C794.1879425 834.40768005 794.1879425 832.42768005 794.1879425 830.38768005 C793.8579425 830.38768005 793.5279425 830.38768005 793.1879425 830.38768005 Z M-226.8120575 837.38768005 C-225.8120575 841.38768005 -225.8120575 841.38768005 -225.8120575 841.38768005 Z M792.1879425 837.38768005 C793.1879425 841.38768005 793.1879425 841.38768005 793.1879425 841.38768005 Z M-225.8120575 842.38768005 C-224.8120575 846.38768005 -224.8120575 846.38768005 -224.8120575 846.38768005 Z M791.1879425 842.38768005 C792.1879425 846.38768005 792.1879425 846.38768005 792.1879425 846.38768005 Z M-219.8120575 866.38768005 C-218.8120575 868.38768005 -218.8120575 868.38768005 -218.8120575 868.38768005 Z M785.1879425 866.38768005 C786.1879425 868.38768005 786.1879425 868.38768005 786.1879425 868.38768005 Z M-218.8120575 869.38768005 C-217.8120575 871.38768005 -217.8120575 871.38768005 -217.8120575 871.38768005 Z M784.1879425 869.38768005 C785.1879425 871.38768005 785.1879425 871.38768005 785.1879425 871.38768005 Z M-217.8120575 872.38768005 C-216.8120575 874.38768005 -216.8120575 874.38768005 -216.8120575 874.38768005 Z M783.1879425 872.38768005 C784.1879425 874.38768005 784.1879425 874.38768005 784.1879425 874.38768005 Z M-216.8120575 875.38768005 C-215.8120575 877.38768005 -215.8120575 877.38768005 -215.8120575 877.38768005 Z M782.1879425 875.38768005 C783.1879425 877.38768005 783.1879425 877.38768005 783.1879425 877.38768005 Z M-214.8120575 880.38768005 C-213.8120575 882.38768005 -213.8120575 882.38768005 -213.8120575 882.38768005 Z M780.1879425 880.38768005 C781.1879425 882.38768005 781.1879425 882.38768005 781.1879425 882.38768005 Z M-211.8120575 887.38768005 C-210.8120575 889.38768005 -210.8120575 889.38768005 -210.8120575 889.38768005 Z M777.1879425 887.38768005 C778.1879425 889.38768005 778.1879425 889.38768005 778.1879425 889.38768005 Z " fill="#000000" transform="translate(228.8120574951172,-0.3876800537109375)"/>
<path d="M0 0 C2.00233713 -0.00461392 4.00467087 -0.01097013 6.00699759 -0.01890898 C11.48657427 -0.03555782 16.96587114 -0.02737606 22.44544864 -0.0149641 C28.36374193 -0.00589777 34.28198779 -0.01989121 40.20027161 -0.03088379 C51.11628426 -0.04763038 62.03220119 -0.04619643 72.9482189 -0.03523792 C83.03374134 -0.02516323 93.11923125 -0.02255469 103.20475769 -0.02732849 C103.87456951 -0.02763403 104.54438132 -0.02793957 105.23449047 -0.02825437 C107.95368926 -0.02949979 110.67288805 -0.0307734 113.39208681 -0.03209343 C138.88394398 -0.04432081 164.37574463 -0.03324926 189.86759307 -0.01170584 C212.50001582 0.00727564 235.13234854 0.00557709 257.76477051 -0.0135498 C283.2109339 -0.0349829 308.65704739 -0.04345355 334.10321856 -0.03110075 C336.81737295 -0.02981794 339.53152735 -0.02856658 342.24568176 -0.02732849 C342.91394267 -0.02701218 343.58220357 -0.02669587 344.2707148 -0.02636998 C354.34823012 -0.0218261 364.42570929 -0.02712997 374.5032196 -0.0372467 C385.96542387 -0.04847286 397.42751857 -0.04541352 408.88971031 -0.02412373 C414.73626094 -0.01362177 420.58262901 -0.00947714 426.42917824 -0.02272034 C431.78457892 -0.03466743 437.13962836 -0.02804317 442.49499732 -0.00681013 C444.42888697 -0.00235393 446.36280649 -0.00458815 448.29667681 -0.01431328 C463.79351764 -0.08624672 476.28735975 1.6245228 488.22521973 12.50793457 C500.12120079 25.64215902 499.78293835 40.65026356 499.61584473 57.33605957 C499.6083724 59.53850793 499.60268416 61.74096299 499.59869385 63.94342041 C499.58351564 69.70398736 499.54430188 75.46414261 499.49987793 81.22454834 C499.45875576 87.11713087 499.44064681 93.00978076 499.42053223 98.90246582 C499.37779949 110.43780167 499.30964392 121.97283371 499.22521973 133.50793457 C500.18829041 133.49905212 501.15136108 133.49016968 502.14361572 133.48101807 C511.26382008 133.3995807 520.3839497 133.3398016 529.50443649 133.30068588 C534.19228131 133.27989931 538.87983028 133.25174695 543.56750488 133.20617676 C548.09980385 133.16239773 552.63182001 133.13873048 557.16431427 133.1284256 C558.88491511 133.1210913 560.60550222 133.1067707 562.32598114 133.08501434 C577.44405412 132.90161451 589.6104342 134.9190607 601.22521973 145.50793457 C610.98873812 156.28772997 612.82849109 168.57612159 612.7331543 182.65112305 C612.73777223 184.15023607 612.7441311 185.64934455 612.75206327 187.1484437 C612.7686574 191.23706068 612.76055584 195.32530096 612.7481184 199.41391873 C612.7390293 203.83527164 612.7530567 208.25656195 612.76403809 212.67790222 C612.78178685 221.32713498 612.7779996 229.97622858 612.76638752 238.6254667 C612.75733911 245.65741195 612.75613529 252.6893183 612.76048279 259.7212677 C612.76109572 260.72363328 612.76170865 261.72599885 612.76234016 262.75873914 C612.76361911 264.79528297 612.76491597 266.83182679 612.76623052 268.86837059 C612.77762565 287.94692172 612.76453937 307.02539585 612.74302906 326.10393435 C612.72515906 342.45983104 612.72826346 358.81561415 612.7467041 375.17150879 C612.76812967 394.18367618 612.77652711 413.19577616 612.76425505 432.20795393 C612.7629809 434.23683642 612.76172342 436.26571893 612.76048279 438.29460144 C612.75986569 439.29274507 612.75924858 440.2908887 612.75861278 441.3192791 C612.75516495 448.3394816 612.76097601 455.35964119 612.770401 462.37983704 C612.78164111 470.93984935 612.77853869 479.49971502 612.75727803 488.05971062 C612.74679465 492.42378692 612.74259926 496.78761907 612.75587463 501.15169334 C612.76786091 505.15262707 612.76113431 509.1530921 612.73996443 513.15398377 C612.7355246 514.59527795 612.73770517 516.03661235 612.74746758 517.4778803 C612.83567427 531.59136492 609.87763599 542.92033611 600.22521973 553.50793457 C587.96084834 564.61606892 574.09406042 565.09453845 558.45043945 565.01586914 C556.44810232 565.02048306 554.44576858 565.02683927 552.44344187 565.03477812 C546.96386519 565.05142696 541.48456831 565.04324521 536.00499082 565.03083324 C530.08669752 565.02176691 524.16845166 565.03576035 518.25016785 565.04675293 C507.33415519 565.06349952 496.41823826 565.06206557 485.50222056 565.05110706 C475.41669812 565.04103237 465.3312082 565.03842383 455.24568176 565.04319763 C454.57586995 565.04350317 453.90605813 565.04380871 453.21594899 565.04412351 C450.49675019 565.04536893 447.77755141 565.04664254 445.05835264 565.04796257 C419.56649548 565.06018996 394.07469482 565.0491184 368.58284638 565.02757498 C345.95042363 565.0085935 323.31809091 565.01029205 300.68566895 565.02941895 C275.23950555 565.05085204 249.79339206 565.05932269 224.3472209 565.04696989 C221.63306651 565.04568708 218.9189121 565.04443572 216.20475769 565.04319763 C215.20236634 565.04272317 215.20236634 565.04272317 214.17972465 565.04223912 C204.10220933 565.03769524 194.02473016 565.04299911 183.94721985 565.05311584 C172.48501559 565.064342 161.02292088 565.06128266 149.56072915 565.03999287 C143.71417851 565.02949091 137.86781044 565.02534628 132.02126122 565.03858948 C126.66586053 565.05053657 121.3108111 565.04391231 115.95544213 565.02267927 C114.02155248 565.01822307 112.08763297 565.02045729 110.15376264 565.03018242 C94.65692181 565.10211586 82.1630797 563.39134635 70.22521973 552.50793457 C58.32923866 539.37371012 58.66750111 524.36560558 58.83459473 507.67980957 C58.84206705 505.47736121 58.84775529 503.27490615 58.85174561 501.07244873 C58.86692381 495.31188178 58.90613757 489.55172654 58.95056152 483.7913208 C58.99168369 477.89873827 59.00979265 472.00608838 59.02990723 466.11340332 C59.07263996 454.57806747 59.14079554 443.04303543 59.22521973 431.50793457 C58.26214905 431.51681702 57.29907837 431.52569946 56.30682373 431.53485107 C47.18661938 431.61628844 38.06648976 431.67606754 28.94600296 431.71518326 C24.25815814 431.73596983 19.57060918 431.76412219 14.88293457 431.80969238 C10.35063561 431.85347141 5.81861944 431.87713866 1.28612518 431.88744354 C-0.43447566 431.89477784 -2.15506277 431.90909844 -3.87554169 431.9308548 C-18.99361467 432.11425463 -31.15999475 430.09680844 -42.77478027 419.50793457 C-52.53829866 408.72813917 -54.37805164 396.43974755 -54.28271484 382.36474609 C-54.28733278 380.86563307 -54.29369165 379.36652459 -54.30162382 377.86742544 C-54.31821795 373.77880847 -54.31011639 369.69056818 -54.29767895 365.60195041 C-54.28858984 361.1805975 -54.30261724 356.75930719 -54.31359863 352.33796692 C-54.3313474 343.68873416 -54.32756014 335.03964056 -54.31594807 326.39040244 C-54.30689965 319.35845719 -54.30569583 312.32655084 -54.31004333 305.29460144 C-54.31096273 303.79105308 -54.31096273 303.79105308 -54.31190071 302.25713 C-54.31317966 300.22058617 -54.31447651 298.18404235 -54.31579107 296.14749855 C-54.3271862 277.06894742 -54.31409992 257.99047329 -54.2925896 238.91193479 C-54.2747196 222.55603811 -54.27782401 206.20025499 -54.29626465 189.84436035 C-54.31769022 170.83219296 -54.32608766 151.82009299 -54.31381559 132.80791521 C-54.31254145 130.77903272 -54.31128397 128.75015021 -54.31004333 126.7212677 C-54.30942623 125.72312407 -54.30880913 124.72498044 -54.30817333 123.69659004 C-54.30472549 116.67638754 -54.31053655 109.65622795 -54.31996155 102.6360321 C-54.33120165 94.07601979 -54.32809924 85.51615412 -54.30683857 76.95615852 C-54.2963552 72.59208222 -54.29215981 68.22825007 -54.30543518 63.8641758 C-54.31742146 59.86324207 -54.31069486 55.86277704 -54.28952497 51.86188537 C-54.28508515 50.42059119 -54.28726572 48.97925679 -54.29702812 47.53798884 C-54.38523481 33.42450422 -51.42719653 22.09553303 -41.77478027 11.50793457 C-29.51040889 0.39980022 -15.64362097 -0.07866931 0 0 Z " fill="#A0A0A0" transform="translate(288.7747802734375,275.4920654296875)"/>
<path d="M0 0 C165.33 0 330.66 0 501 0 C501.0928125 61.936875 501.0928125 61.936875 501.1875 125.125 C501.21481201 138.17434082 501.24212402 151.22368164 501.27026367 164.66845703 C501.28381348 180.57397461 501.28381348 180.57397461 501.28633118 188.01437378 C501.28913195 193.22331837 501.30014979 198.43216965 501.31672668 203.64108276 C501.33782508 210.28058045 501.34348056 216.91997114 501.33921683 223.55950904 C501.34010873 225.99920068 501.34608019 228.43889686 501.35764539 230.87856126 C501.37252223 234.16905787 501.36898664 237.45903418 501.36076355 240.74954224 C501.37387054 242.18785558 501.37387054 242.18785558 501.38724232 243.65522575 C501.35217272 248.86083494 500.93125763 252.50743698 498 257 C492.89571207 261.72146633 488.87930134 262.14707889 482.16689587 262.13142776 C480.95130344 262.13450672 480.95130344 262.13450672 479.7111536 262.13764787 C476.97239367 262.14334076 474.23368366 262.14185781 471.49491882 262.14044189 C469.52082585 262.14302422 467.54673339 262.146037 465.57264167 262.1494453 C460.12964694 262.15753411 454.68666537 262.15930591 449.24366534 262.16004276 C443.38055924 262.16189004 437.51746004 262.16943569 431.65435791 262.17617798 C418.15684022 262.19048416 404.65932433 262.19628942 391.16180047 262.20086992 C384.49393497 262.20320488 377.82607027 262.2068074 371.15820543 262.2105653 C348.33978622 262.22340113 325.5213675 262.23412063 302.70294476 262.2375679 C301.27024672 262.23778954 299.83754869 262.23801132 298.40485065 262.23823325 C296.96866577 262.23845389 295.53248089 262.23867438 294.09629601 262.2388947 C291.21499487 262.23933726 288.33369372 262.23978437 285.45239258 262.24023438 C284.38079792 262.24039846 284.38079792 262.24039846 283.28755489 262.24056586 C260.11716158 262.24419744 236.94679954 262.26012109 213.77641821 262.28342474 C189.28737891 262.30800966 164.79835749 262.3217401 140.30930549 262.32293582 C137.62208004 262.32310728 134.93485461 262.32332271 132.24762917 262.32357025 C131.58594412 262.32362602 130.92425908 262.32368179 130.24252298 262.32373925 C120.24551058 262.32481947 110.24853243 262.33418998 100.2515316 262.34775543 C88.88338557 262.36312677 77.51529312 262.36829444 66.14713868 262.36001733 C60.34394553 262.35610038 54.54086041 262.35709128 48.73768044 262.37107468 C43.42855941 262.38375095 38.11962828 262.38267154 32.81050775 262.37048396 C30.88654467 262.36851605 28.96256843 262.3716555 27.03862389 262.38032833 C24.42905912 262.39135005 21.82017291 262.38398316 19.21062756 262.3719368 C18.08283479 262.38332959 18.08283479 262.38332959 16.93225834 262.39495254 C12.21582249 262.34775523 9.00708063 261.48676009 5 259 C1.34632424 255.05008026 -0.12571708 252.06274156 -0.12304783 246.71089649 C-0.1250387 245.83031511 -0.12702957 244.94973373 -0.12908077 244.04246807 C-0.12616811 243.07485452 -0.12325544 242.10724096 -0.12025452 241.11030579 C-0.12111053 240.08525436 -0.12196655 239.06020294 -0.12284851 238.00408936 C-0.12450993 234.54217822 -0.11896996 231.08031495 -0.11352539 227.6184082 C-0.11321921 225.10495346 -0.11335228 222.59149864 -0.11389065 220.07804394 C-0.11409398 214.01546145 -0.10980012 207.95289762 -0.10338932 201.89031981 C-0.0961973 194.87947549 -0.09539501 187.86863637 -0.09460449 180.85778809 C-0.08935134 162.34268971 -0.07539026 143.82759463 -0.0625 125.3125 C-0.041875 83.959375 -0.02125 42.60625 0 0 Z " fill="#000000" transform="translate(374,552)"/>
<path d="M0 0 C2.00233713 -0.00461392 4.00467087 -0.01097013 6.00699759 -0.01890898 C11.48657427 -0.03555782 16.96587114 -0.02737606 22.44544864 -0.0149641 C28.36374193 -0.00589777 34.28198779 -0.01989121 40.20027161 -0.03088379 C51.11628426 -0.04763038 62.03220119 -0.04619643 72.9482189 -0.03523792 C83.03374134 -0.02516323 93.11923125 -0.02255469 103.20475769 -0.02732849 C103.87456951 -0.02763403 104.54438132 -0.02793957 105.23449047 -0.02825437 C107.95368926 -0.02949979 110.67288805 -0.0307734 113.39208681 -0.03209343 C138.88394398 -0.04432081 164.37574463 -0.03324926 189.86759307 -0.01170584 C212.50001582 0.00727564 235.13234854 0.00557709 257.76477051 -0.0135498 C283.2109339 -0.0349829 308.65704739 -0.04345355 334.10321856 -0.03110075 C336.81737295 -0.02981794 339.53152735 -0.02856658 342.24568176 -0.02732849 C342.91394267 -0.02701218 343.58220357 -0.02669587 344.2707148 -0.02636998 C354.34823012 -0.0218261 364.42570929 -0.02712997 374.5032196 -0.0372467 C385.96542387 -0.04847286 397.42751857 -0.04541352 408.88971031 -0.02412373 C414.73626094 -0.01362177 420.58262901 -0.00947714 426.42917824 -0.02272034 C431.78457892 -0.03466743 437.13962836 -0.02804317 442.49499732 -0.00681013 C444.42888697 -0.00235393 446.36280649 -0.00458815 448.29667681 -0.01431328 C463.79351764 -0.08624672 476.28735975 1.6245228 488.22521973 12.50793457 C500.12120079 25.64215902 499.78293835 40.65026356 499.61584473 57.33605957 C499.6083724 59.53850793 499.60268416 61.74096299 499.59869385 63.94342041 C499.58351564 69.70398736 499.54430188 75.46414261 499.49987793 81.22454834 C499.45875576 87.11713087 499.44064681 93.00978076 499.42053223 98.90246582 C499.37779949 110.43780167 499.30964392 121.97283371 499.22521973 133.50793457 C498.37069269 133.50853166 497.51616565 133.50912875 496.63574386 133.50974393 C445.98112508 133.54564368 395.32656568 133.6022916 344.67200194 133.68585552 C338.58882999 133.69587289 332.50565776 133.70571703 326.42248535 133.7154541 C325.21144348 133.71739547 324.00040161 133.71933685 322.7526615 133.72133705 C303.14779628 133.75235181 283.54294276 133.76933625 263.93805763 133.78112879 C243.81922552 133.79354305 223.70045481 133.8210507 203.58166146 133.86254764 C191.16890508 133.88767508 178.75625052 133.90105239 166.34346834 133.89936414 C157.82969788 133.89933437 149.31603108 133.91397538 140.80230102 133.94009885 C135.8915034 133.95473556 130.98091838 133.96295558 126.07010269 133.95373726 C121.56908298 133.94543132 117.06848984 133.9556573 112.56753328 133.98027119 C110.94419053 133.98594028 109.32080715 133.98496198 107.69747683 133.97644702 C93.28836838 133.90737607 81.07283934 136.30946385 70.22521973 146.50793457 C62.27612578 156.22995258 59.76657523 166.39643347 59.82649231 178.73294067 C59.81984548 179.81954275 59.81319866 180.90614482 59.80635041 182.02567422 C59.78779441 185.64306763 59.79032078 189.26012811 59.79284668 192.87756348 C59.78382504 195.47999537 59.77349683 198.082423 59.76196289 200.68484497 C59.73923775 206.27555583 59.72730234 211.86620464 59.72283363 217.45695877 C59.71635695 225.54009089 59.69339301 233.62311113 59.66649034 241.70619802 C59.62327953 254.82254886 59.59328025 267.93889496 59.57165527 281.05529785 C59.55062845 293.7916496 59.52333851 306.5279627 59.4876709 319.26428223 C59.48547207 320.05022182 59.48327325 320.83616142 59.48100779 321.64591737 C59.46993771 325.58900613 59.45874499 329.53209453 59.44749129 333.47518277 C59.35438703 366.15273455 59.28275166 398.8303005 59.22521973 431.50793457 C49.13222736 431.60102271 39.0393388 431.67189521 28.94600296 431.71518326 C24.25815814 431.73596983 19.57060918 431.76412219 14.88293457 431.80969238 C10.35063561 431.85347141 5.81861944 431.87713866 1.28612518 431.88744354 C-0.43447566 431.89477784 -2.15506277 431.90909844 -3.87554169 431.9308548 C-18.99361467 432.11425463 -31.15999475 430.09680844 -42.77478027 419.50793457 C-52.53829866 408.72813917 -54.37805164 396.43974755 -54.28271484 382.36474609 C-54.28733278 380.86563307 -54.29369165 379.36652459 -54.30162382 377.86742544 C-54.31821795 373.77880847 -54.31011639 369.69056818 -54.29767895 365.60195041 C-54.28858984 361.1805975 -54.30261724 356.75930719 -54.31359863 352.33796692 C-54.3313474 343.68873416 -54.32756014 335.03964056 -54.31594807 326.39040244 C-54.30689965 319.35845719 -54.30569583 312.32655084 -54.31004333 305.29460144 C-54.31096273 303.79105308 -54.31096273 303.79105308 -54.31190071 302.25713 C-54.31317966 300.22058617 -54.31447651 298.18404235 -54.31579107 296.14749855 C-54.3271862 277.06894742 -54.31409992 257.99047329 -54.2925896 238.91193479 C-54.2747196 222.55603811 -54.27782401 206.20025499 -54.29626465 189.84436035 C-54.31769022 170.83219296 -54.32608766 151.82009299 -54.31381559 132.80791521 C-54.31254145 130.77903272 -54.31128397 128.75015021 -54.31004333 126.7212677 C-54.30942623 125.72312407 -54.30880913 124.72498044 -54.30817333 123.69659004 C-54.30472549 116.67638754 -54.31053655 109.65622795 -54.31996155 102.6360321 C-54.33120165 94.07601979 -54.32809924 85.51615412 -54.30683857 76.95615852 C-54.2963552 72.59208222 -54.29215981 68.22825007 -54.30543518 63.8641758 C-54.31742146 59.86324207 -54.31069486 55.86277704 -54.28952497 51.86188537 C-54.28508515 50.42059119 -54.28726572 48.97925679 -54.29702812 47.53798884 C-54.38523481 33.42450422 -51.42719653 22.09553303 -41.77478027 11.50793457 C-29.51040889 0.39980022 -15.64362097 -0.07866931 0 0 Z " fill="#6E6E6E" transform="translate(175.7747802734375,142.4920654296875)"/>
<path d="M0 0 C2.00233713 -0.00461392 4.00467087 -0.01097013 6.00699759 -0.01890898 C11.48657427 -0.03555782 16.96587114 -0.02737606 22.44544864 -0.0149641 C28.36374193 -0.00589777 34.28198779 -0.01989121 40.20027161 -0.03088379 C51.11628426 -0.04763038 62.03220119 -0.04619643 72.9482189 -0.03523792 C83.03374134 -0.02516323 93.11923125 -0.02255469 103.20475769 -0.02732849 C103.87456951 -0.02763403 104.54438132 -0.02793957 105.23449047 -0.02825437 C107.95368926 -0.02949979 110.67288805 -0.0307734 113.39208681 -0.03209343 C138.88394398 -0.04432081 164.37574463 -0.03324926 189.86759307 -0.01170584 C212.50001582 0.00727564 235.13234854 0.00557709 257.76477051 -0.0135498 C283.2109339 -0.0349829 308.65704739 -0.04345355 334.10321856 -0.03110075 C336.81737295 -0.02981794 339.53152735 -0.02856658 342.24568176 -0.02732849 C342.91394267 -0.02701218 343.58220357 -0.02669587 344.2707148 -0.02636998 C354.34823012 -0.0218261 364.42570929 -0.02712997 374.5032196 -0.0372467 C385.96542387 -0.04847286 397.42751857 -0.04541352 408.88971031 -0.02412373 C414.73626094 -0.01362177 420.58262901 -0.00947714 426.42917824 -0.02272034 C431.78457892 -0.03466743 437.13962836 -0.02804317 442.49499732 -0.00681013 C444.42888697 -0.00235393 446.36280649 -0.00458815 448.29667681 -0.01431328 C463.79351764 -0.08624672 476.28735975 1.6245228 488.22521973 12.50793457 C497.98873812 23.28772997 499.82849109 35.57612159 499.7331543 49.65112305 C499.73777223 51.15023607 499.7441311 52.64934455 499.75206327 54.1484437 C499.7686574 58.23706068 499.76055584 62.32530096 499.7481184 66.41391873 C499.7390293 70.83527164 499.7530567 75.25656195 499.76403809 79.67790222 C499.78178685 88.32713498 499.7779996 96.97622858 499.76638752 105.6254667 C499.75733911 112.65741195 499.75613529 119.6893183 499.76048279 126.7212677 C499.76109572 127.72363328 499.76170865 128.72599885 499.76234016 129.75873914 C499.76361911 131.79528297 499.76491597 133.83182679 499.76623052 135.86837059 C499.77762565 154.94692172 499.76453937 174.02539585 499.74302906 193.10393435 C499.72515906 209.45983104 499.72826346 225.81561415 499.7467041 242.17150879 C499.76812967 261.18367618 499.77652711 280.19577616 499.76425505 299.20795393 C499.7629809 301.23683642 499.76172342 303.26571893 499.76048279 305.29460144 C499.75986569 306.29274507 499.75924858 307.2908887 499.75861278 308.3192791 C499.75516495 315.3394816 499.76097601 322.35964119 499.770401 329.37983704 C499.78164111 337.93984935 499.77853869 346.49971502 499.75727803 355.05971062 C499.74679465 359.42378692 499.74259926 363.78761907 499.75587463 368.15169334 C499.76786091 372.15262707 499.76113431 376.1530921 499.73996443 380.15398377 C499.7355246 381.59527795 499.73770517 383.03661235 499.74746758 384.4778803 C499.83567427 398.59136492 496.87763599 409.92033611 487.22521973 420.50793457 C474.96084834 431.61606892 461.09406042 432.09453845 445.45043945 432.01586914 C443.44810232 432.02048306 441.44576858 432.02683927 439.44344187 432.03477812 C433.96386519 432.05142696 428.48456831 432.04324521 423.00499082 432.03083324 C417.08669752 432.02176691 411.16845166 432.03576035 405.25016785 432.04675293 C394.33415519 432.06349952 383.41823826 432.06206557 372.50222056 432.05110706 C362.41669812 432.04103237 352.3312082 432.03842383 342.24568176 432.04319763 C341.57586995 432.04350317 340.90605813 432.04380871 340.21594899 432.04412351 C337.49675019 432.04536893 334.77755141 432.04664254 332.05835264 432.04796257 C306.56649548 432.06018996 281.07469482 432.0491184 255.58284638 432.02757498 C232.95042363 432.0085935 210.31809091 432.01029205 187.68566895 432.02941895 C162.23950555 432.05085204 136.79339206 432.05932269 111.3472209 432.04696989 C108.63306651 432.04568708 105.9189121 432.04443572 103.20475769 432.04319763 C102.53649679 432.04288132 101.86823589 432.04256501 101.17972465 432.04223912 C91.10220933 432.03769524 81.02473016 432.04299911 70.94721985 432.05311584 C59.48501559 432.064342 48.02292088 432.06128266 36.56072915 432.03999287 C30.71417851 432.02949091 24.86781044 432.02534628 19.02126122 432.03858948 C13.66586053 432.05053657 8.3108111 432.04391231 2.95544213 432.02267927 C1.02155248 432.01822307 -0.91236703 432.02045729 -2.84623736 432.03018242 C-18.34307819 432.10211586 -30.8369203 430.39134635 -42.77478027 419.50793457 C-52.53829866 408.72813917 -54.37805164 396.43974755 -54.28271484 382.36474609 C-54.28733278 380.86563307 -54.29369165 379.36652459 -54.30162382 377.86742544 C-54.31821795 373.77880847 -54.31011639 369.69056818 -54.29767895 365.60195041 C-54.28858984 361.1805975 -54.30261724 356.75930719 -54.31359863 352.33796692 C-54.3313474 343.68873416 -54.32756014 335.03964056 -54.31594807 326.39040244 C-54.30689965 319.35845719 -54.30569583 312.32655084 -54.31004333 305.29460144 C-54.31096273 303.79105308 -54.31096273 303.79105308 -54.31190071 302.25713 C-54.31317966 300.22058617 -54.31447651 298.18404235 -54.31579107 296.14749855 C-54.3271862 277.06894742 -54.31409992 257.99047329 -54.2925896 238.91193479 C-54.2747196 222.55603811 -54.27782401 206.20025499 -54.29626465 189.84436035 C-54.31769022 170.83219296 -54.32608766 151.82009299 -54.31381559 132.80791521 C-54.31254145 130.77903272 -54.31128397 128.75015021 -54.31004333 126.7212677 C-54.30942623 125.72312407 -54.30880913 124.72498044 -54.30817333 123.69659004 C-54.30472549 116.67638754 -54.31053655 109.65622795 -54.31996155 102.6360321 C-54.33120165 94.07601979 -54.32809924 85.51615412 -54.30683857 76.95615852 C-54.2963552 72.59208222 -54.29215981 68.22825007 -54.30543518 63.8641758 C-54.31742146 59.86324207 -54.31069486 55.86277704 -54.28952497 51.86188537 C-54.28508515 50.42059119 -54.28726572 48.97925679 -54.29702812 47.53798884 C-54.38523481 33.42450422 -51.42719653 22.09553303 -41.77478027 11.50793457 C-29.51040889 0.39980022 -15.64362097 -0.07866931 0 0 Z M-27.77478027 143.50793457 C-27.83665527 184.79918457 -27.89853027 226.09043457 -27.96228027 268.63293457 C-27.98959229 281.68227539 -28.0169043 294.73161621 -28.04504395 308.1763916 C-28.05507576 319.84934879 -28.05507576 319.84934879 -28.06111145 331.52230835 C-28.06391222 336.73125294 -28.07493006 341.94010422 -28.09150696 347.14901733 C-28.11260535 353.78851502 -28.11826083 360.42790571 -28.1139971 367.06744361 C-28.114889 369.50713525 -28.12086046 371.94683143 -28.13242567 374.38649583 C-28.1473025 377.67699244 -28.14376691 380.96696875 -28.13554382 384.25747681 C-28.14428182 385.21635237 -28.15301981 386.17522793 -28.16202259 387.16316032 C-28.12695299 392.36876951 -27.7060379 396.01537155 -24.77478027 400.50793457 C-19.67049235 405.2294009 -15.65408161 405.65501346 -8.94167614 405.63936234 C-8.13128119 405.64141497 -7.32088624 405.6434676 -6.48593387 405.64558244 C-3.74717394 405.65127533 -1.00846393 405.64979238 1.7303009 405.64837646 C3.70439388 405.65095879 5.67848633 405.65397157 7.65257806 405.65737987 C13.09557279 405.66546868 18.53855435 405.66724048 23.98155439 405.66797733 C29.84466048 405.66982461 35.70775969 405.67737026 41.57086182 405.68411255 C55.06837951 405.69841873 68.56589539 405.70422399 82.06341926 405.70880449 C88.73128476 405.71113945 95.39914945 405.71474198 102.0670143 405.71849987 C124.8854335 405.7313357 147.70385223 405.7420552 170.52227497 405.74550247 C171.95497301 405.74572411 173.38767104 405.74594589 174.82036908 405.74616782 C176.25655396 405.74638847 177.69273883 405.74660895 179.12892371 405.74682927 C182.01022486 405.74727183 184.891526 405.74771894 187.77282715 405.74816895 C188.48722359 405.74827834 189.20162002 405.74838773 189.93766484 405.74850043 C213.10805815 405.75213201 236.27842019 405.76805567 259.44880152 405.79135931 C283.93784082 405.81594423 308.42686224 405.82967467 332.91591424 405.83087039 C335.60313968 405.83104185 338.29036512 405.83125728 340.97759056 405.83150482 C341.97011812 405.83158847 341.97011812 405.83158847 342.98269675 405.83167382 C352.97970915 405.83275404 362.9766873 405.84212455 372.97368813 405.85569 C384.34183416 405.87106134 395.7099266 405.87622901 407.07808105 405.8679519 C412.88127419 405.86403495 418.68435932 405.86502585 424.48753929 405.87900925 C429.79666032 405.89168552 435.10559145 405.89060612 440.41471197 405.87841853 C442.33867505 405.87645062 444.2626513 405.87959007 446.18659583 405.8882629 C448.79616061 405.89928462 451.40504682 405.89191773 454.01459217 405.87987137 C455.14238493 405.89126416 455.14238493 405.89126416 456.29296139 405.90288711 C461.00939724 405.8556898 464.2181391 404.99469466 468.22521973 402.50793457 C471.87889548 398.55801483 473.3509368 395.57067613 473.34826756 390.21883106 C473.35025843 389.33824968 473.3522493 388.4576683 473.3543005 387.55040264 C473.35138783 386.58278909 473.34847517 385.61517553 473.34547424 384.61824036 C473.34633026 383.59318893 473.34718628 382.56813751 473.34806824 381.51202393 C473.34972965 378.05011279 473.34418969 374.58824952 473.33874512 371.12634277 C473.33843894 368.61288803 473.338572 366.09943321 473.33911037 363.58597851 C473.33931371 357.52339602 473.33501985 351.46083219 473.32860905 345.39825438 C473.32141703 338.38741006 473.32061473 331.37657094 473.31982422 324.36572266 C473.31457106 305.85062428 473.30060999 287.3355292 473.28771973 268.82043457 C473.26709473 227.46730957 473.24646973 186.11418457 473.22521973 143.50793457 C307.89521973 143.50793457 142.56521973 143.50793457 -27.77478027 143.50793457 Z " fill="#FFFFFF" transform="translate(401.7747802734375,408.4920654296875)"/>
<path d="M0 0 C0.81039495 -0.00205263 1.6207899 -0.00410527 2.45574227 -0.0062201 C5.1945022 -0.01191299 7.93321221 -0.01043004 10.67197704 -0.00901413 C12.64607002 -0.01159645 14.62016247 -0.01460924 16.5942542 -0.01801753 C22.03724893 -0.02610635 27.48023049 -0.02787815 32.92323053 -0.028615 C38.78633662 -0.03046227 44.64943583 -0.03800792 50.51253796 -0.04475021 C64.01005565 -0.05905639 77.50757153 -0.06486166 91.0050954 -0.06944216 C97.6729609 -0.07177712 104.34082559 -0.07537964 111.00869044 -0.07913754 C133.82710964 -0.09197337 156.64552837 -0.10269286 179.46395111 -0.10614014 C180.89664915 -0.10636177 182.32934718 -0.10658355 183.76204522 -0.10680549 C185.1982301 -0.10702613 186.63441497 -0.10724661 188.07059985 -0.10746694 C190.951901 -0.10790949 193.83320214 -0.10835661 196.71450329 -0.10880661 C197.42889973 -0.108916 198.14329616 -0.10902539 198.87934098 -0.1091381 C222.04973429 -0.11276967 245.22009633 -0.12869333 268.39047766 -0.15199697 C292.87951696 -0.1765819 317.36853838 -0.19031234 341.85759038 -0.19150805 C344.54481582 -0.19167951 347.23204126 -0.19189494 349.9192667 -0.19214249 C350.58095174 -0.19219826 351.24263678 -0.19225402 351.92437289 -0.19231148 C361.92138529 -0.1933917 371.91836344 -0.20276222 381.91536427 -0.21632767 C393.2835103 -0.23169901 404.65160274 -0.23686667 416.01975719 -0.22858956 C421.82295033 -0.22467261 427.62603546 -0.22566351 433.42921543 -0.23964691 C438.73833646 -0.25232318 444.04726759 -0.25124378 449.35638811 -0.2390562 C451.28035119 -0.23708828 453.20432744 -0.24022773 455.12827197 -0.24890056 C457.73783675 -0.25992228 460.34672296 -0.2525554 462.95626831 -0.24050903 C463.70813015 -0.24810423 464.45999199 -0.25569942 465.23463753 -0.26352477 C469.95107338 -0.21632746 473.15981524 0.64466768 477.16689587 3.13142776 C497.11758636 24.69974181 482.16689587 61.7507841 482.16689587 91.13142776 C316.83689587 91.13142776 151.50689587 91.13142776 -18.83310413 91.13142776 C-18.83310413 11.13142776 -18.83310413 11.13142776 -15.83310413 5.13142776 C-10.72881621 0.40996143 -6.71240547 -0.01565112 0 0 Z " fill="#000000" transform="translate(392.83310413360596,434.8685722351074)"/>
<path d="M0 0 C0.81039495 -0.00205263 1.6207899 -0.00410527 2.45574227 -0.0062201 C5.1945022 -0.01191299 7.93321221 -0.01043004 10.67197704 -0.00901413 C12.64607002 -0.01159645 14.62016247 -0.01460924 16.5942542 -0.01801753 C22.03724893 -0.02610635 27.48023049 -0.02787815 32.92323053 -0.028615 C38.78633662 -0.03046227 44.64943583 -0.03800792 50.51253796 -0.04475021 C64.01005565 -0.05905639 77.50757153 -0.06486166 91.0050954 -0.06944216 C97.6729609 -0.07177712 104.34082559 -0.07537964 111.00869044 -0.07913754 C133.82710964 -0.09197337 156.64552837 -0.10269286 179.46395111 -0.10614014 C180.89664915 -0.10636177 182.32934718 -0.10658355 183.76204522 -0.10680549 C185.1982301 -0.10702613 186.63441497 -0.10724661 188.07059985 -0.10746694 C190.951901 -0.10790949 193.83320214 -0.10835661 196.71450329 -0.10880661 C197.42889973 -0.108916 198.14329616 -0.10902539 198.87934098 -0.1091381 C222.04973429 -0.11276967 245.22009633 -0.12869333 268.39047766 -0.15199697 C292.87951696 -0.1765819 317.36853838 -0.19031234 341.85759038 -0.19150805 C344.54481582 -0.19167951 347.23204126 -0.19189494 349.9192667 -0.19214249 C350.58095174 -0.19219826 351.24263678 -0.19225402 351.92437289 -0.19231148 C361.92138529 -0.1933917 371.91836344 -0.20276222 381.91536427 -0.21632767 C393.2835103 -0.23169901 404.65160274 -0.23686667 416.01975719 -0.22858956 C421.82295033 -0.22467261 427.62603546 -0.22566351 433.42921543 -0.23964691 C438.73833646 -0.25232318 444.04726759 -0.25124378 449.35638811 -0.2390562 C451.28035119 -0.23708828 453.20432744 -0.24022773 455.12827197 -0.24890056 C457.73783675 -0.25992228 460.34672296 -0.2525554 462.95626831 -0.24050903 C463.70813015 -0.24810423 464.45999199 -0.25569942 465.23463753 -0.26352477 C469.95107338 -0.21632746 473.15981524 0.64466768 477.16689587 3.13142776 C497.11758636 24.69974181 482.16689587 61.7507841 482.16689587 91.13142776 C316.83689587 91.13142776 151.50689587 91.13142776 -18.83310413 91.13142776 C-18.83310413 11.13142776 -18.83310413 11.13142776 -15.83310413 5.13142776 C-10.72881621 0.40996143 -6.71240547 -0.01565112 0 0 Z " fill="#000000" transform="translate(279.83310413360596,301.8685722351074)"/>
<path d="M0 0 C0.81039495 -0.00205263 1.6207899 -0.00410527 2.45574227 -0.0062201 C5.1945022 -0.01191299 7.93321221 -0.01043004 10.67197704 -0.00901413 C12.64607002 -0.01159645 14.62016247 -0.01460924 16.5942542 -0.01801753 C22.03724893 -0.02610635 27.48023049 -0.02787815 32.92323053 -0.028615 C38.78633662 -0.03046227 44.64943583 -0.03800792 50.51253796 -0.04475021 C64.01005565 -0.05905639 77.50757153 -0.06486166 91.0050954 -0.06944216 C97.6729609 -0.07177712 104.34082559 -0.07537964 111.00869044 -0.07913754 C133.82710964 -0.09197337 156.64552837 -0.10269286 179.46395111 -0.10614014 C180.89664915 -0.10636177 182.32934718 -0.10658355 183.76204522 -0.10680549 C185.1982301 -0.10702613 186.63441497 -0.10724661 188.07059985 -0.10746694 C190.951901 -0.10790949 193.83320214 -0.10835661 196.71450329 -0.10880661 C197.42889973 -0.108916 198.14329616 -0.10902539 198.87934098 -0.1091381 C222.04973429 -0.11276967 245.22009633 -0.12869333 268.39047766 -0.15199697 C292.87951696 -0.1765819 317.36853838 -0.19031234 341.85759038 -0.19150805 C344.54481582 -0.19167951 347.23204126 -0.19189494 349.9192667 -0.19214249 C350.58095174 -0.19219826 351.24263678 -0.19225402 351.92437289 -0.19231148 C361.92138529 -0.1933917 371.91836344 -0.20276222 381.91536427 -0.21632767 C393.2835103 -0.23169901 404.65160274 -0.23686667 416.01975719 -0.22858956 C421.82295033 -0.22467261 427.62603546 -0.22566351 433.42921543 -0.23964691 C438.73833646 -0.25232318 444.04726759 -0.25124378 449.35638811 -0.2390562 C451.28035119 -0.23708828 453.20432744 -0.24022773 455.12827197 -0.24890056 C457.73783675 -0.25992228 460.34672296 -0.2525554 462.95626831 -0.24050903 C463.70813015 -0.24810423 464.45999199 -0.25569942 465.23463753 -0.26352477 C469.95107338 -0.21632746 473.15981524 0.64466768 477.16689587 3.13142776 C497.11758636 24.69974181 482.16689587 61.7507841 482.16689587 91.13142776 C316.83689587 91.13142776 151.50689587 91.13142776 -18.83310413 91.13142776 C-18.83310413 11.13142776 -18.83310413 11.13142776 -15.83310413 5.13142776 C-10.72881621 0.40996143 -6.71240547 -0.01565112 0 0 Z " fill="#000000" transform="translate(166.83310413360596,168.86857223510742)"/>
<path d="M0 0 C33 0 66 0 100 0 C98.02 2.97 96.04 5.94 94 9 C89.40211589 17.42945421 87.70111917 24.32416109 87.7215271 33.87718201 C87.7157347 34.85504844 87.7099423 35.83291488 87.70397437 36.84041363 C87.6870076 40.10775411 87.68410069 43.37495305 87.68115234 46.64233398 C87.67185189 48.98816778 87.66168304 51.33399826 87.65071106 53.67982483 C87.62341033 60.04283673 87.60826135 66.40582649 87.59528303 72.76888156 C87.58123678 78.74659505 87.55810227 84.72427046 87.53501268 90.70195425 C87.48958657 102.53883305 87.45295451 114.37572197 87.421875 126.21264648 C87.39167231 137.7084328 87.35731416 149.20419436 87.31738281 160.69995117 C87.31492126 161.40901705 87.31245972 162.11808294 87.30992357 162.84863567 C87.29754864 166.40595042 87.28509217 169.96326489 87.27259517 173.52057922 C87.16909 203.01368366 87.08001301 232.5068225 87 262 C77.19450078 262.06958022 67.38906052 262.12285201 57.58336449 262.15543652 C53.02993408 262.17107726 48.47667288 262.1922864 43.92333984 262.22631836 C39.52724169 262.25896866 35.13130605 262.27686499 30.73509598 262.28463173 C29.0597948 262.29016507 27.38450228 262.30097039 25.70927048 262.31719017 C23.35855801 262.33904018 21.0085129 262.34196382 18.65771484 262.34057617 C17.62408813 262.35675491 17.62408813 262.35675491 16.56958008 262.3732605 C11.98613173 262.34407813 8.8978422 261.39047754 5 259 C1.34632424 255.05008026 -0.12571708 252.06274156 -0.12304783 246.71089649 C-0.12503888 245.83059106 -0.12702993 244.95028562 -0.12908131 244.04330426 C-0.12616847 243.07541477 -0.12325563 242.10752527 -0.12025452 241.11030579 C-0.12110894 240.08277087 -0.12196337 239.05523595 -0.12284368 237.99656361 C-0.12449701 234.537161 -0.11897947 231.07780638 -0.11352539 227.6184082 C-0.11324346 225.14509075 -0.11340136 222.67177321 -0.1139679 220.19845581 C-0.11419596 214.86517527 -0.11135084 209.53190981 -0.10573006 204.19863319 C-0.09760859 196.48757893 -0.09499917 188.77653058 -0.09374207 181.06547251 C-0.09155257 168.55528236 -0.08489523 156.04509872 -0.07543945 143.53491211 C-0.06626271 131.38126661 -0.05918315 119.22762288 -0.05493164 107.07397461 C-0.05466892 106.32502689 -0.05440619 105.57607917 -0.05413551 104.80443607 C-0.05283049 101.04724609 -0.05156677 97.29005611 -0.05032361 93.53286612 C-0.03995417 62.35523831 -0.02151756 31.17762261 0 0 Z " fill="#000000" transform="translate(261,419)"/>
<path d="M0 0 C33 0 66 0 100 0 C98.02 2.97 96.04 5.94 94 9 C89.40211589 17.42945421 87.70111917 24.32416109 87.7215271 33.87718201 C87.7157347 34.85504844 87.7099423 35.83291488 87.70397437 36.84041363 C87.6870076 40.10775411 87.68410069 43.37495305 87.68115234 46.64233398 C87.67185189 48.98816778 87.66168304 51.33399826 87.65071106 53.67982483 C87.62341033 60.04283673 87.60826135 66.40582649 87.59528303 72.76888156 C87.58123678 78.74659505 87.55810227 84.72427046 87.53501268 90.70195425 C87.48958657 102.53883305 87.45295451 114.37572197 87.421875 126.21264648 C87.39167231 137.7084328 87.35731416 149.20419436 87.31738281 160.69995117 C87.31492126 161.40901705 87.31245972 162.11808294 87.30992357 162.84863567 C87.29754864 166.40595042 87.28509217 169.96326489 87.27259517 173.52057922 C87.16909 203.01368366 87.08001301 232.5068225 87 262 C77.19450078 262.06958022 67.38906052 262.12285201 57.58336449 262.15543652 C53.02993408 262.17107726 48.47667288 262.1922864 43.92333984 262.22631836 C39.52724169 262.25896866 35.13130605 262.27686499 30.73509598 262.28463173 C29.0597948 262.29016507 27.38450228 262.30097039 25.70927048 262.31719017 C23.35855801 262.33904018 21.0085129 262.34196382 18.65771484 262.34057617 C17.62408813 262.35675491 17.62408813 262.35675491 16.56958008 262.3732605 C11.98613173 262.34407813 8.8978422 261.39047754 5 259 C1.34632424 255.05008026 -0.12571708 252.06274156 -0.12304783 246.71089649 C-0.12503888 245.83059106 -0.12702993 244.95028562 -0.12908131 244.04330426 C-0.12616847 243.07541477 -0.12325563 242.10752527 -0.12025452 241.11030579 C-0.12110894 240.08277087 -0.12196337 239.05523595 -0.12284368 237.99656361 C-0.12449701 234.537161 -0.11897947 231.07780638 -0.11352539 227.6184082 C-0.11324346 225.14509075 -0.11340136 222.67177321 -0.1139679 220.19845581 C-0.11419596 214.86517527 -0.11135084 209.53190981 -0.10573006 204.19863319 C-0.09760859 196.48757893 -0.09499917 188.77653058 -0.09374207 181.06547251 C-0.09155257 168.55528236 -0.08489523 156.04509872 -0.07543945 143.53491211 C-0.06626271 131.38126661 -0.05918315 119.22762288 -0.05493164 107.07397461 C-0.05466892 106.32502689 -0.05440619 105.57607917 -0.05413551 104.80443607 C-0.05283049 101.04724609 -0.05156677 97.29005611 -0.05032361 93.53286612 C-0.03995417 62.35523831 -0.02151756 31.17762261 0 0 Z " fill="#000000" transform="translate(148,286)"/>
<path d="M0 0 C102.3 0 204.6 0 310 0 C310 9.24 310 18.48 310 28 C207.7 28 105.4 28 0 28 C0 18.76 0 9.52 0 0 Z " fill="#FFFFFF" transform="translate(425,662)"/>
<path d="M0 0 C4.28590933 2.79515826 7.22425239 5.92275717 8.875 10.875 C9.27180449 16.13265945 8.76998146 19.43602842 5.875 23.875 C2.14828845 27.65262291 -1.04943319 29.71835345 -6.4375 30.125 C-11.07867488 29.81034408 -14.21281977 28.76140961 -17.57421875 25.4453125 C-21.73332268 20.6545968 -22.54956273 17.13730028 -22.125 10.875 C-20.23172504 5.6159029 -17.52716785 3.08491406 -13.125 -0.125 C-8.46247142 -1.67917619 -4.63746673 -1.66948802 0 0 Z " fill="#FFFFFF" transform="translate(505.125,459.125)"/>
<path d="M0 0 C4.28590933 2.79515826 7.22425239 5.92275717 8.875 10.875 C9.27180449 16.13265945 8.76998146 19.43602842 5.875 23.875 C2.14828845 27.65262291 -1.04943319 29.71835345 -6.4375 30.125 C-11.07867488 29.81034408 -14.21281977 28.76140961 -17.57421875 25.4453125 C-21.73332268 20.6545968 -22.54956273 17.13730028 -22.125 10.875 C-20.23172504 5.6159029 -17.52716785 3.08491406 -13.125 -0.125 C-8.46247142 -1.67917619 -4.63746673 -1.66948802 0 0 Z " fill="#FFFFFF" transform="translate(463.125,459.125)"/>
<path d="M0 0 C4.28590933 2.79515826 7.22425239 5.92275717 8.875 10.875 C9.27180449 16.13265945 8.76998146 19.43602842 5.875 23.875 C2.14828845 27.65262291 -1.04943319 29.71835345 -6.4375 30.125 C-11.07867488 29.81034408 -14.21281977 28.76140961 -17.57421875 25.4453125 C-21.73332268 20.6545968 -22.54956273 17.13730028 -22.125 10.875 C-20.23172504 5.6159029 -17.52716785 3.08491406 -13.125 -0.125 C-8.46247142 -1.67917619 -4.63746673 -1.66948802 0 0 Z " fill="#FFFFFF" transform="translate(421.125,459.125)"/>
<path d="M0 0 C1.98 0 3.96 0 6 0 C6 0.33 6 0.66 6 1 C4.02 1 2.04 1 0 1 C0 0.67 0 0.34 0 0 Z " fill="#000000" transform="translate(830,1023)"/>
<path d="M0 0 C1.98 0 3.96 0 6 0 C6 0.33 6 0.66 6 1 C4.02 1 2.04 1 0 1 C0 0.67 0 0.34 0 0 Z " fill="#000000" transform="translate(188,1023)"/>
<path d="M0 0 C1.98 0 3.96 0 6 0 C6 0.33 6 0.66 6 1 C4.02 1 2.04 1 0 1 C0 0.67 0 0.34 0 0 Z " fill="#000000" transform="translate(836,1022)"/>
<path d="M0 0 C1.98 0 3.96 0 6 0 C6 0.33 6 0.66 6 1 C4.02 1 2.04 1 0 1 C0 0.67 0 0.34 0 0 Z " fill="#000000" transform="translate(182,1022)"/>
<path d="M0 0 C1.98 0 3.96 0 6 0 C6 0.33 6 0.66 6 1 C4.02 1 2.04 1 0 1 C0 0.67 0 0.34 0 0 Z " fill="#000000" transform="translate(836,1)"/>
<path d="M0 0 C1.98 0 3.96 0 6 0 C6 0.33 6 0.66 6 1 C4.02 1 2.04 1 0 1 C0 0.67 0 0.34 0 0 Z " fill="#000000" transform="translate(182,1)"/>
<path d="M0 0 C1.98 0 3.96 0 6 0 C6 0.33 6 0.66 6 1 C4.02 1 2.04 1 0 1 C0 0.67 0 0.34 0 0 Z " fill="#000000" transform="translate(830,0)"/>
<path d="M0 0 C1.98 0 3.96 0 6 0 C6 0.33 6 0.66 6 1 C4.02 1 2.04 1 0 1 C0 0.67 0 0.34 0 0 Z " fill="#000000" transform="translate(188,0)"/>
<path d="M0 0 C1.65 0 3.3 0 5 0 C5 0.33 5 0.66 5 1 C3.35 1 1.7 1 0 1 C0 0.67 0 0.34 0 0 Z " fill="#000000" transform="translate(842,1021)"/>
<path d="M0 0 C1.65 0 3.3 0 5 0 C5 0.33 5 0.66 5 1 C3.35 1 1.7 1 0 1 C0 0.67 0 0.34 0 0 Z " fill="#000000" transform="translate(177,1021)"/>
<path d="M0 0 C1.65 0 3.3 0 5 0 C5 0.33 5 0.66 5 1 C3.35 1 1.7 1 0 1 C0 0.67 0 0.34 0 0 Z " fill="#000000" transform="translate(842,2)"/>
<path d="M0 0 C1.65 0 3.3 0 5 0 C5 0.33 5 0.66 5 1 C3.35 1 1.7 1 0 1 C0 0.67 0 0.34 0 0 Z " fill="#000000" transform="translate(177,2)"/>
<path d="M0 0 C4 1 4 1 4 1 Z " fill="#000000" transform="translate(847,1020)"/>
<path d="M0 0 C4 1 4 1 4 1 Z " fill="#000000" transform="translate(173,1020)"/>
<path d="M0 0 C4 1 4 1 4 1 Z " fill="#000000" transform="translate(851,1019)"/>
<path d="M0 0 C4 1 4 1 4 1 Z " fill="#000000" transform="translate(169,1019)"/>
<path d="M0 0 C4 1 4 1 4 1 Z " fill="#000000" transform="translate(855,1018)"/>
<path d="M0 0 C4 1 4 1 4 1 Z " fill="#000000" transform="translate(165,1018)"/>
<path d="M0 0 C4 1 4 1 4 1 Z " fill="#000000" transform="translate(862,1016)"/>
<path d="M0 0 C4 1 4 1 4 1 Z " fill="#000000" transform="translate(158,1016)"/>
<path d="M0 0 C1 4 1 4 1 4 Z " fill="#000000" transform="translate(1019,851)"/>
<path d="M0 0 C1 4 1 4 1 4 Z " fill="#000000" transform="translate(4,851)"/>
<path d="M0 0 C1 4 1 4 1 4 Z " fill="#000000" transform="translate(1019,169)"/>
<path d="M0 0 C1 4 1 4 1 4 Z " fill="#000000" transform="translate(4,169)"/>
<path d="M0 0 C4 1 4 1 4 1 Z " fill="#000000" transform="translate(862,7)"/>
<path d="M0 0 C4 1 4 1 4 1 Z " fill="#000000" transform="translate(158,7)"/>
<path d="M0 0 C4 1 4 1 4 1 Z " fill="#000000" transform="translate(855,5)"/>
<path d="M0 0 C4 1 4 1 4 1 Z " fill="#000000" transform="translate(165,5)"/>
<path d="M0 0 C4 1 4 1 4 1 Z " fill="#000000" transform="translate(851,4)"/>
<path d="M0 0 C4 1 4 1 4 1 Z " fill="#000000" transform="translate(169,4)"/>
<path d="M0 0 C4 1 4 1 4 1 Z " fill="#000000" transform="translate(847,3)"/>
<path d="M0 0 C4 1 4 1 4 1 Z " fill="#000000" transform="translate(173,3)"/>
<path d="M0 0 C3 1 3 1 3 1 Z " fill="#000000" transform="translate(859,1017)"/>
<path d="M0 0 C3 1 3 1 3 1 Z " fill="#000000" transform="translate(162,1017)"/>
<path d="M0 0 C3 1 3 1 3 1 Z " fill="#000000" transform="translate(866,1015)"/>
<path d="M0 0 C3 1 3 1 3 1 Z " fill="#000000" transform="translate(155,1015)"/>
<path d="M0 0 C3 1 3 1 3 1 Z " fill="#000000" transform="translate(869,1014)"/>
<path d="M0 0 C3 1 3 1 3 1 Z " fill="#000000" transform="translate(152,1014)"/>
<path d="M0 0 C3 1 3 1 3 1 Z " fill="#000000" transform="translate(872,1013)"/>
<path d="M0 0 C3 1 3 1 3 1 Z " fill="#000000" transform="translate(149,1013)"/>
<path d="M0 0 C3 1 3 1 3 1 Z " fill="#000000" transform="translate(877,1011)"/>
<path d="M0 0 C3 1 3 1 3 1 Z " fill="#000000" transform="translate(144,1011)"/>
<path d="M0 0 C3 1 3 1 3 1 Z " fill="#000000" transform="translate(882,1009)"/>
<path d="M0 0 C3 1 3 1 3 1 Z " fill="#000000" transform="translate(139,1009)"/>
<path d="M0 0 C3 1 3 1 3 1 Z " fill="#000000" transform="translate(887,1007)"/>
<path d="M0 0 C3 1 3 1 3 1 Z " fill="#000000" transform="translate(134,1007)"/>
<path d="" fill="#000000" transform="translate(0,0)"/>
<path d="" fill="#000000" transform="translate(0,0)"/>
<path d="" fill="#000000" transform="translate(0,0)"/>
<path d="" fill="#000000" transform="translate(0,0)"/>
<path d="" fill="#000000" transform="translate(0,0)"/>
<path d="" fill="#000000" transform="translate(0,0)"/>
<path d="" fill="#000000" transform="translate(0,0)"/>
<path d="" fill="#000000" transform="translate(0,0)"/>
<path d="M0 0 C3 1 3 1 3 1 Z " fill="#000000" transform="translate(887,16)"/>
<path d="M0 0 C3 1 3 1 3 1 Z " fill="#000000" transform="translate(134,16)"/>
<path d="M0 0 C3 1 3 1 3 1 Z " fill="#000000" transform="translate(882,14)"/>
<path d="M0 0 C3 1 3 1 3 1 Z " fill="#000000" transform="translate(139,14)"/>
<path d="M0 0 C3 1 3 1 3 1 Z " fill="#000000" transform="translate(877,12)"/>
<path d="M0 0 C3 1 3 1 3 1 Z " fill="#000000" transform="translate(144,12)"/>
<path d="M0 0 C3 1 3 1 3 1 Z " fill="#000000" transform="translate(872,10)"/>
<path d="M0 0 C3 1 3 1 3 1 Z " fill="#000000" transform="translate(149,10)"/>
<path d="M0 0 C3 1 3 1 3 1 Z " fill="#000000" transform="translate(869,9)"/>
<path d="M0 0 C3 1 3 1 3 1 Z " fill="#000000" transform="translate(152,9)"/>
<path d="M0 0 C3 1 3 1 3 1 Z " fill="#000000" transform="translate(866,8)"/>
<path d="M0 0 C3 1 3 1 3 1 Z " fill="#000000" transform="translate(155,8)"/>
<path d="M0 0 C3 1 3 1 3 1 Z " fill="#000000" transform="translate(859,6)"/>
<path d="M0 0 C3 1 3 1 3 1 Z " fill="#000000" transform="translate(162,6)"/>
<path d="M0 0 C2 1 2 1 2 1 Z " fill="#000000" transform="translate(875,1012)"/>
<path d="M0 0 C2 1 2 1 2 1 Z " fill="#000000" transform="translate(147,1012)"/>
<path d="M0 0 C2 1 2 1 2 1 Z " fill="#000000" transform="translate(880,1010)"/>
<path d="M0 0 C2 1 2 1 2 1 Z " fill="#000000" transform="translate(142,1010)"/>
<path d="M0 0 C2 1 2 1 2 1 Z " fill="#000000" transform="translate(885,1008)"/>
<path d="M0 0 C2 1 2 1 2 1 Z " fill="#000000" transform="translate(137,1008)"/>
<path d="M0 0 C2 1 2 1 2 1 Z " fill="#000000" transform="translate(890,1006)"/>
<path d="M0 0 C2 1 2 1 2 1 Z " fill="#000000" transform="translate(132,1006)"/>
<path d="M0 0 C2 1 2 1 2 1 Z " fill="#000000" transform="translate(892,1005)"/>
<path d="M0 0 C2 1 2 1 2 1 Z " fill="#000000" transform="translate(130,1005)"/>
<path d="M0 0 C2 1 2 1 2 1 Z " fill="#000000" transform="translate(894,1004)"/>
<path d="M0 0 C2 1 2 1 2 1 Z " fill="#000000" transform="translate(128,1004)"/>
<path d="M0 0 C2 1 2 1 2 1 Z " fill="#000000" transform="translate(896,1003)"/>
<path d="M0 0 C2 1 2 1 2 1 Z " fill="#000000" transform="translate(126,1003)"/>
<path d="M0 0 C2 1 2 1 2 1 Z " fill="#000000" transform="translate(898,1002)"/>
<path d="M0 0 C2 1 2 1 2 1 Z " fill="#000000" transform="translate(124,1002)"/>
<path d="M0 0 C2 1 2 1 2 1 Z " fill="#000000" transform="translate(900,1001)"/>
<path d="M0 0 C2 1 2 1 2 1 Z " fill="#000000" transform="translate(122,1001)"/>
<path d="M0 0 C2 1 2 1 2 1 Z " fill="#000000" transform="translate(902,1000)"/>
<path d="M0 0 C2 1 2 1 2 1 Z " fill="#000000" transform="translate(120,1000)"/>
<path d="M0 0 C2 1 2 1 2 1 Z " fill="#000000" transform="translate(904,999)"/>
<path d="M0 0 C2 1 2 1 2 1 Z " fill="#000000" transform="translate(118,999)"/>
<path d="M0 0 C2 1 2 1 2 1 Z " fill="#000000" transform="translate(906,998)"/>
<path d="M0 0 C2 1 2 1 2 1 Z " fill="#000000" transform="translate(116,998)"/>
<path d="M0 0 C2 1 2 1 2 1 Z " fill="#000000" transform="translate(908,997)"/>
<path d="M0 0 C2 1 2 1 2 1 Z " fill="#000000" transform="translate(114,997)"/>
<path d="M0 0 C2 1 2 1 2 1 Z " fill="#000000" transform="translate(911,995)"/>
<path d="M0 0 C2 1 2 1 2 1 Z " fill="#000000" transform="translate(111,995)"/>
<path d="M0 0 C2 1 2 1 2 1 Z " fill="#000000" transform="translate(913,994)"/>
<path d="M0 0 C2 1 2 1 2 1 Z " fill="#000000" transform="translate(109,994)"/>
<path d="M0 0 C2 1 2 1 2 1 Z " fill="#000000" transform="translate(916,992)"/>
<path d="M0 0 C2 1 2 1 2 1 Z " fill="#000000" transform="translate(106,992)"/>
<path d="M0 0 C2 1 2 1 2 1 Z " fill="#000000" transform="translate(921,989)"/>
<path d="M0 0 C2 1 2 1 2 1 Z " fill="#000000" transform="translate(101,989)"/>
<path d="M0 0 C2 1 2 1 2 1 Z " fill="#000000" transform="translate(924,987)"/>
<path d="M0 0 C2 1 2 1 2 1 Z " fill="#000000" transform="translate(98,987)"/>
<path d="M0 0 C2 1 2 1 2 1 Z " fill="#000000" transform="translate(927,985)"/>
<path d="M0 0 C2 1 2 1 2 1 Z " fill="#000000" transform="translate(95,985)"/>
<path d="M0 0 C2 1 2 1 2 1 Z " fill="#000000" transform="translate(931,982)"/>
<path d="M0 0 C2 1 2 1 2 1 Z " fill="#000000" transform="translate(91,982)"/>
<path d="M0 0 C2 1 2 1 2 1 Z " fill="#000000" transform="translate(935,979)"/>
<path d="M0 0 C2 1 2 1 2 1 Z " fill="#000000" transform="translate(87,979)"/>
<path d="M0 0 C2 1 2 1 2 1 Z " fill="#000000" transform="translate(940,975)"/>
<path d="M0 0 C2 1 2 1 2 1 Z " fill="#000000" transform="translate(82,975)"/>
<path d="M0 0 C2 1 2 1 2 1 Z " fill="#000000" transform="translate(946,970)"/>
<path d="M0 0 C2 1 2 1 2 1 Z " fill="#000000" transform="translate(76,970)"/>
<path d="M0 0 C2 1 2 1 2 1 Z " fill="#000000" transform="translate(946,53)"/>
<path d="M0 0 C2 1 2 1 2 1 Z " fill="#000000" transform="translate(76,53)"/>
<path d="M0 0 C2 1 2 1 2 1 Z " fill="#000000" transform="translate(940,48)"/>
<path d="M0 0 C2 1 2 1 2 1 Z " fill="#000000" transform="translate(82,48)"/>
<path d="M0 0 C2 1 2 1 2 1 Z " fill="#000000" transform="translate(935,44)"/>
<path d="M0 0 C2 1 2 1 2 1 Z " fill="#000000" transform="translate(87,44)"/>
<path d="M0 0 C2 1 2 1 2 1 Z " fill="#000000" transform="translate(931,41)"/>
<path d="M0 0 C2 1 2 1 2 1 Z " fill="#000000" transform="translate(91,41)"/>
<path d="M0 0 C2 1 2 1 2 1 Z " fill="#000000" transform="translate(927,38)"/>
<path d="M0 0 C2 1 2 1 2 1 Z " fill="#000000" transform="translate(95,38)"/>
<path d="M0 0 C2 1 2 1 2 1 Z " fill="#000000" transform="translate(924,36)"/>
<path d="M0 0 C2 1 2 1 2 1 Z " fill="#000000" transform="translate(98,36)"/>
<path d="M0 0 C2 1 2 1 2 1 Z " fill="#000000" transform="translate(921,34)"/>
<path d="M0 0 C2 1 2 1 2 1 Z " fill="#000000" transform="translate(101,34)"/>
<path d="M0 0 C2 1 2 1 2 1 Z " fill="#000000" transform="translate(916,31)"/>
<path d="M0 0 C2 1 2 1 2 1 Z " fill="#000000" transform="translate(106,31)"/>
<path d="M0 0 C2 1 2 1 2 1 Z " fill="#000000" transform="translate(913,29)"/>
<path d="M0 0 C2 1 2 1 2 1 Z " fill="#000000" transform="translate(109,29)"/>
<path d="M0 0 C2 1 2 1 2 1 Z " fill="#000000" transform="translate(911,28)"/>
<path d="M0 0 C2 1 2 1 2 1 Z " fill="#000000" transform="translate(111,28)"/>
<path d="M0 0 C2 1 2 1 2 1 Z " fill="#000000" transform="translate(908,26)"/>
<path d="M0 0 C2 1 2 1 2 1 Z " fill="#000000" transform="translate(114,26)"/>
<path d="M0 0 C2 1 2 1 2 1 Z " fill="#000000" transform="translate(906,25)"/>
<path d="M0 0 C2 1 2 1 2 1 Z " fill="#000000" transform="translate(116,25)"/>
<path d="M0 0 C2 1 2 1 2 1 Z " fill="#000000" transform="translate(904,24)"/>
<path d="M0 0 C2 1 2 1 2 1 Z " fill="#000000" transform="translate(118,24)"/>
<path d="M0 0 C2 1 2 1 2 1 Z " fill="#000000" transform="translate(902,23)"/>
<path d="M0 0 C2 1 2 1 2 1 Z " fill="#000000" transform="translate(120,23)"/>
<path d="M0 0 C2 1 2 1 2 1 Z " fill="#000000" transform="translate(900,22)"/>
<path d="M0 0 C2 1 2 1 2 1 Z " fill="#000000" transform="translate(122,22)"/>
<path d="M0 0 C2 1 2 1 2 1 Z " fill="#000000" transform="translate(898,21)"/>
<path d="M0 0 C2 1 2 1 2 1 Z " fill="#000000" transform="translate(124,21)"/>
<path d="M0 0 C2 1 2 1 2 1 Z " fill="#000000" transform="translate(896,20)"/>
<path d="M0 0 C2 1 2 1 2 1 Z " fill="#000000" transform="translate(126,20)"/>
<path d="M0 0 C2 1 2 1 2 1 Z " fill="#000000" transform="translate(894,19)"/>
<path d="M0 0 C2 1 2 1 2 1 Z " fill="#000000" transform="translate(128,19)"/>
<path d="M0 0 C2 1 2 1 2 1 Z " fill="#000000" transform="translate(892,18)"/>
<path d="M0 0 C2 1 2 1 2 1 Z " fill="#000000" transform="translate(130,18)"/>
<path d="M0 0 C2 1 2 1 2 1 Z " fill="#000000" transform="translate(890,17)"/>
<path d="M0 0 C2 1 2 1 2 1 Z " fill="#000000" transform="translate(132,17)"/>
<path d="M0 0 C2 1 2 1 2 1 Z " fill="#000000" transform="translate(885,15)"/>
<path d="M0 0 C2 1 2 1 2 1 Z " fill="#000000" transform="translate(137,15)"/>
<path d="M0 0 C2 1 2 1 2 1 Z " fill="#000000" transform="translate(880,13)"/>
<path d="M0 0 C2 1 2 1 2 1 Z " fill="#000000" transform="translate(142,13)"/>
<path d="M0 0 C2 1 2 1 2 1 Z " fill="#000000" transform="translate(875,11)"/>
<path d="M0 0 C2 1 2 1 2 1 Z " fill="#000000" transform="translate(147,11)"/>
<path d="" fill="#000000" transform="translate(0,0)"/>
<path d="" fill="#000000" transform="translate(0,0)"/>
<path d="" fill="#000000" transform="translate(0,0)"/>
<path d="" fill="#000000" transform="translate(0,0)"/>
<path d="" fill="#000000" transform="translate(0,0)"/>
<path d="" fill="#000000" transform="translate(0,0)"/>
<path d="" fill="#000000" transform="translate(0,0)"/>
<path d="" fill="#000000" transform="translate(0,0)"/>
<path d="" fill="#000000" transform="translate(0,0)"/>
<path d="" fill="#000000" transform="translate(0,0)"/>
<path d="" fill="#000000" transform="translate(0,0)"/>
<path d="" fill="#000000" transform="translate(0,0)"/>
<path d="" fill="#000000" transform="translate(0,0)"/>
<path d="" fill="#000000" transform="translate(0,0)"/>
<path d="" fill="#000000" transform="translate(0,0)"/>
<path d="" fill="#000000" transform="translate(0,0)"/>
<path d="" fill="#000000" transform="translate(0,0)"/>
<path d="" fill="#000000" transform="translate(0,0)"/>
<path d="" fill="#000000" transform="translate(0,0)"/>
<path d="" fill="#000000" transform="translate(0,0)"/>
<path d="" fill="#000000" transform="translate(0,0)"/>
<path d="" fill="#000000" transform="translate(0,0)"/>
<path d="" fill="#000000" transform="translate(0,0)"/>
<path d="" fill="#000000" transform="translate(0,0)"/>
<path d="" fill="#000000" transform="translate(0,0)"/>
<path d="" fill="#000000" transform="translate(0,0)"/>
<path d="" fill="#000000" transform="translate(0,0)"/>
<path d="" fill="#000000" transform="translate(0,0)"/>
<path d="" fill="#000000" transform="translate(0,0)"/>
<path d="" fill="#000000" transform="translate(0,0)"/>
<path d="" fill="#000000" transform="translate(0,0)"/>
<path d="" fill="#000000" transform="translate(0,0)"/>
<path d="" fill="#000000" transform="translate(0,0)"/>
<path d="" fill="#000000" transform="translate(0,0)"/>
<path d="" fill="#000000" transform="translate(0,0)"/>
<path d="" fill="#000000" transform="translate(0,0)"/>
<path d="" fill="#000000" transform="translate(0,0)"/>
<path d="" fill="#000000" transform="translate(0,0)"/>
<path d="" fill="#000000" transform="translate(0,0)"/>
<path d="" fill="#000000" transform="translate(0,0)"/>
<path d="" fill="#000000" transform="translate(0,0)"/>
<path d="" fill="#000000" transform="translate(0,0)"/>
<path d="" fill="#000000" transform="translate(0,0)"/>
<path d="" fill="#000000" transform="translate(0,0)"/>
<path d="" fill="#000000" transform="translate(0,0)"/>
<path d="" fill="#000000" transform="translate(0,0)"/>
<path d="" fill="#000000" transform="translate(0,0)"/>
<path d="" fill="#000000" transform="translate(0,0)"/>
<path d="" fill="#000000" transform="translate(0,0)"/>
<path d="" fill="#000000" transform="translate(0,0)"/>
<path d="" fill="#000000" transform="translate(0,0)"/>
<path d="" fill="#000000" transform="translate(0,0)"/>
<path d="" fill="#000000" transform="translate(0,0)"/>
<path d="" fill="#000000" transform="translate(0,0)"/>
<path d="" fill="#000000" transform="translate(0,0)"/>
<path d="" fill="#000000" transform="translate(0,0)"/>
<path d="" fill="#000000" transform="translate(0,0)"/>
<path d="" fill="#000000" transform="translate(0,0)"/>
<path d="" fill="#000000" transform="translate(0,0)"/>
<path d="" fill="#000000" transform="translate(0,0)"/>
<path d="" fill="#000000" transform="translate(0,0)"/>
<path d="" fill="#000000" transform="translate(0,0)"/>
<path d="" fill="#000000" transform="translate(0,0)"/>
<path d="" fill="#000000" transform="translate(0,0)"/>
<path d="" fill="#000000" transform="translate(0,0)"/>
<path d="" fill="#000000" transform="translate(0,0)"/>
<path d="" fill="#000000" transform="translate(0,0)"/>
<path d="" fill="#000000" transform="translate(0,0)"/>
<path d="" fill="#000000" transform="translate(0,0)"/>
<path d="" fill="#000000" transform="translate(0,0)"/>
<path d="" fill="#000000" transform="translate(0,0)"/>
<path d="" fill="#000000" transform="translate(0,0)"/>
<path d="" fill="#000000" transform="translate(0,0)"/>
<path d="" fill="#000000" transform="translate(0,0)"/>
<path d="" fill="#000000" transform="translate(0,0)"/>
<path d="" fill="#000000" transform="translate(0,0)"/>
<path d="" fill="#000000" transform="translate(0,0)"/>
<path d="" fill="#000000" transform="translate(0,0)"/>
<path d="" fill="#000000" transform="translate(0,0)"/>
<path d="" fill="#000000" transform="translate(0,0)"/>
<path d="" fill="#000000" transform="translate(0,0)"/>
<path d="" fill="#000000" transform="translate(0,0)"/>
<path d="" fill="#000000" transform="translate(0,0)"/>
<path d="" fill="#000000" transform="translate(0,0)"/>
<path d="" fill="#000000" transform="translate(0,0)"/>
<path d="" fill="#000000" transform="translate(0,0)"/>
<path d="" fill="#000000" transform="translate(0,0)"/>
<path d="" fill="#000000" transform="translate(0,0)"/>
<path d="" fill="#000000" transform="translate(0,0)"/>
<path d="" fill="#000000" transform="translate(0,0)"/>
<path d="" fill="#000000" transform="translate(0,0)"/>
<path d="" fill="#000000" transform="translate(0,0)"/>
<path d="" fill="#000000" transform="translate(0,0)"/>
<path d="" fill="#000000" transform="translate(0,0)"/>
<path d="" fill="#000000" transform="translate(0,0)"/>
<path d="" fill="#000000" transform="translate(0,0)"/>
<path d="" fill="#000000" transform="translate(0,0)"/>
<path d="" fill="#000000" transform="translate(0,0)"/>
<path d="" fill="#000000" transform="translate(0,0)"/>
<path d="" fill="#000000" transform="translate(0,0)"/>
<path d="" fill="#000000" transform="translate(0,0)"/>
<path d="" fill="#000000" transform="translate(0,0)"/>
<path d="" fill="#000000" transform="translate(0,0)"/>
<path d="" fill="#000000" transform="translate(0,0)"/>
<path d="" fill="#000000" transform="translate(0,0)"/>
<path d="" fill="#000000" transform="translate(0,0)"/>
<path d="" fill="#000000" transform="translate(0,0)"/>
<path d="" fill="#000000" transform="translate(0,0)"/>
<path d="" fill="#000000" transform="translate(0,0)"/>
<path d="" fill="#000000" transform="translate(0,0)"/>
<path d="" fill="#000000" transform="translate(0,0)"/>
<path d="" fill="#000000" transform="translate(0,0)"/>
<path d="" fill="#000000" transform="translate(0,0)"/>
<path d="" fill="#000000" transform="translate(0,0)"/>
<path d="" fill="#000000" transform="translate(0,0)"/>
<path d="" fill="#000000" transform="translate(0,0)"/>
<path d="" fill="#000000" transform="translate(0,0)"/>
<path d="" fill="#000000" transform="translate(0,0)"/>
<path d="" fill="#000000" transform="translate(0,0)"/>
<path d="" fill="#000000" transform="translate(0,0)"/>
<path d="" fill="#000000" transform="translate(0,0)"/>
<path d="" fill="#000000" transform="translate(0,0)"/>
<path d="" fill="#000000" transform="translate(0,0)"/>
<path d="" fill="#000000" transform="translate(0,0)"/>
<path d="" fill="#000000" transform="translate(0,0)"/>
<path d="" fill="#000000" transform="translate(0,0)"/>
<path d="" fill="#000000" transform="translate(0,0)"/>
<path d="" fill="#000000" transform="translate(0,0)"/>
<path d="" fill="#000000" transform="translate(0,0)"/>
<path d="" fill="#000000" transform="translate(0,0)"/>
<path d="" fill="#000000" transform="translate(0,0)"/>
<path d="" fill="#000000" transform="translate(0,0)"/>
<path d="" fill="#000000" transform="translate(0,0)"/>
<path d="" fill="#000000" transform="translate(0,0)"/>
<path d="" fill="#000000" transform="translate(0,0)"/>
<path d="" fill="#000000" transform="translate(0,0)"/>
<path d="" fill="#000000" transform="translate(0,0)"/>
<path d="" fill="#000000" transform="translate(0,0)"/>
<path d="" fill="#000000" transform="translate(0,0)"/>
<path d="" fill="#000000" transform="translate(0,0)"/>
<path d="" fill="#000000" transform="translate(0,0)"/>
<path d="" fill="#000000" transform="translate(0,0)"/>
<path d="" fill="#000000" transform="translate(0,0)"/>
<path d="" fill="#000000" transform="translate(0,0)"/>
<path d="" fill="#000000" transform="translate(0,0)"/>
<path d="" fill="#000000" transform="translate(0,0)"/>
<path d="" fill="#000000" transform="translate(0,0)"/>
<path d="" fill="#000000" transform="translate(0,0)"/>
<path d="" fill="#000000" transform="translate(0,0)"/>
<path d="" fill="#000000" transform="translate(0,0)"/>
<path d="" fill="#000000" transform="translate(0,0)"/>
<path d="" fill="#000000" transform="translate(0,0)"/>
<path d="" fill="#000000" transform="translate(0,0)"/>
<path d="" fill="#000000" transform="translate(0,0)"/>
<path d="" fill="#000000" transform="translate(0,0)"/>
<path d="" fill="#000000" transform="translate(0,0)"/>
<path d="" fill="#000000" transform="translate(0,0)"/>
<path d="" fill="#000000" transform="translate(0,0)"/>
<path d="" fill="#000000" transform="translate(0,0)"/>
<path d="" fill="#000000" transform="translate(0,0)"/>
<path d="" fill="#000000" transform="translate(0,0)"/>
<path d="" fill="#000000" transform="translate(0,0)"/>
<path d="" fill="#000000" transform="translate(0,0)"/>
<path d="" fill="#000000" transform="translate(0,0)"/>
<path d="" fill="#000000" transform="translate(0,0)"/>
<path d="" fill="#000000" transform="translate(0,0)"/>
<path d="" fill="#000000" transform="translate(0,0)"/>
<path d="" fill="#000000" transform="translate(0,0)"/>
<path d="" fill="#000000" transform="translate(0,0)"/>
<path d="" fill="#000000" transform="translate(0,0)"/>
<path d="" fill="#000000" transform="translate(0,0)"/>
<path d="" fill="#000000" transform="translate(0,0)"/>
</svg>
